<svg id="svg2" xmlns="http://www.w3.org/2000/svg" viewBox="0 0 266 100"><defs><style>.cls-1{fill:none;}.cls-2{fill:#e9e9e9;}</style></defs><title>Facebook_logo</title><g id="g4"><rect id="rect6" class="cls-1" width="266" height="100"/></g><g id="g8"><path id="path10" class="cls-2" d="M136.94,45.57A12.15,12.15,0,0,0,131.56,47v16.6a35,35,0,0,0,3.88.15c5.27,0,6-2.41,6-5.79V50.06C141.43,47.57,140.6,45.57,136.94,45.57Zm-35-.91c-3.66,0-4.49,2-4.49,4.49v1.4h9v-1.4C106.42,46.68,105.58,44.67,101.93,44.67ZM34.11,61.95c0,2,.93,3,3,3a10.91,10.91,0,0,0,5.1-1.45V59.55H37.38C35.11,59.55,34.11,60,34.11,61.95ZM171,45.57c-3.66,0-4.93,2-4.93,4.49v9.08c0,2.5,1.27,4.5,4.93,4.5s4.93-2,4.93-4.5V50.06C175.93,47.57,174.65,45.57,171,45.57ZM16.15,72.13H5.38V46.07H0v-9H5.38V31.69c0-7.33,3-11.69,11.67-11.69h7.19v9H19.75c-3.36,0-3.58,1.26-3.58,3.6v4.5h8.14l-1,9H16.15V72.13ZM53,72.2H44l-0.39-2.27a20.58,20.58,0,0,1-10.17,2.64c-6.58,0-10.09-4.4-10.09-10.48,0-7.18,4.09-9.74,11.4-9.74h7.44V50.8c0-3.66-.42-4.74-6.05-4.74H26.92l0.9-9H37.89C50.25,37.08,53,41,53,50.88V72.2ZM83.48,46.72c-5.59-1-7.19-1.17-9.88-1.17-4.83,0-6.29,1.07-6.29,5.16v7.75c0,4.1,1.46,5.17,6.29,5.17,2.69,0,4.29-.21,9.88-1.18v8.76a47.64,47.64,0,0,1-10.77,1.39c-11.56,0-16.16-6.08-16.16-14.87V51.46c0-8.79,4.6-14.88,16.16-14.88A47.44,47.44,0,0,1,83.48,38v8.76Zm33.7,11H97.44v0.72c0,4.1,1.46,5.17,6.29,5.17a62.77,62.77,0,0,0,12.56-1.18v8.76a56.65,56.65,0,0,1-13.46,1.39c-11.56,0-16.16-6.08-16.16-14.87V50.56c0-7.69,3.41-14,15.26-14s15.26,6.22,15.26,14v7.19Zm35,0.17c0,8.49-2.43,14.68-17.13,14.68a81.25,81.25,0,0,1-14.28-1.37V22.7l10.77-1.8v17a24.44,24.44,0,0,1,8.08-1.3c10.77,0,12.56,4.83,12.56,12.58v8.76Zm34.51,0.19c0,7.32-3,14.43-15.68,14.43S155.3,65.43,155.3,58.1V51c0-7.33,3.08-14.43,15.74-14.43S186.71,43.7,186.71,51V58.1Zm34.49,0c0,7.32-3,14.43-15.68,14.43s-15.74-7.1-15.74-14.43V51c0-7.33,3.08-14.43,15.74-14.43S221.2,43.7,221.2,51V58.1Zm35.39,14H244.92l-9.87-16.48V72.13H224.28V22.7l10.77-1.8V52.73l9.87-15.64h11.67L245.82,54.16ZM205.49,45.57c-3.66,0-4.93,2-4.93,4.49v9.08c0,2.5,1.27,4.5,4.93,4.5s4.95-2,4.95-4.5V50.06C210.43,47.57,209.14,45.57,205.49,45.57Z"/><path id="path12" class="cls-2" d="M262.74,66a3.33,3.33,0,1,1-3.3,3.33,3.28,3.28,0,0,1,3.3-3.33h0Zm0,0.52a2.82,2.82,0,0,0,0,5.63,2.82,2.82,0,0,0,0-5.63h0Zm-0.62,4.74h-0.59V67.54a6.78,6.78,0,0,1,1-.09,2,2,0,0,1,1.15.28,0.9,0.9,0,0,1,.34.77,0.92,0.92,0,0,1-.72.9v0a0.9,0.9,0,0,1,.62.9,3.06,3.06,0,0,0,.23.92h-0.62a2.8,2.8,0,0,1-.25-0.95,0.69,0.69,0,0,0-.8-0.65h-0.41v1.6Zm0-2.05h0.43a0.74,0.74,0,0,0,.9-0.64,0.73,0.73,0,0,0-.9-0.65,2.9,2.9,0,0,0-.43,0v1.26Z"/></g></svg>